<svg xmlns="http://www.w3.org/2000/svg" xmlns:xlink="http://www.w3.org/1999/xlink" contentStyleType="text/css" data-diagram-type="CLASS" height="642px" preserveAspectRatio="none" style="width:1201px;height:642px;background:#FFFFFF;" version="1.1" viewBox="0 0 1201 642" width="1201px" zoomAndPan="magnify"><defs/><g><!--cluster data--><g id="cluster_data"><path d="M392.74,316 L425.1511,316 A3.75,3.75 0 0 1 427.6511,318.5 L434.6511,338.4883 L1192.09,338.4883 A2.5,2.5 0 0 1 1194.59,340.9883 L1194.59,632.5 A2.5,2.5 0 0 1 1192.09,635 L392.74,635 A2.5,2.5 0 0 1 390.24,632.5 L390.24,318.5 A2.5,2.5 0 0 1 392.74,316 " fill="transparent" style="stroke:#000000;stroke-width:1.5;"/><line style="stroke:#000000;stroke-width:1.5;" x1="390.24" x2="434.6511" y1="338.4883" y2="338.4883"/><text fill="#000000" font-family="sans-serif" font-size="14" font-weight="bold" lengthAdjust="spacing" textLength="31.4111" x="394.24" y="331.5352">data</text></g><!--cluster regression--><g id="cluster_regression"><path d="M8.5,6 L86.3906,6 A3.75,3.75 0 0 1 88.8906,8.5 L95.8906,28.4883 L1139.16,28.4883 A2.5,2.5 0 0 1 1141.66,30.9883 L1141.66,289.5 A2.5,2.5 0 0 1 1139.16,292 L8.5,292 A2.5,2.5 0 0 1 6,289.5 L6,8.5 A2.5,2.5 0 0 1 8.5,6 " fill="transparent" style="stroke:#000000;stroke-width:1.5;"/><line style="stroke:#000000;stroke-width:1.5;" x1="6" x2="95.8906" y1="28.4883" y2="28.4883"/><text fill="#000000" font-family="sans-serif" font-size="14" font-weight="bold" lengthAdjust="spacing" textLength="76.8906" x="10" y="21.5352">regression</text></g><!--class DataLoader--><g id="elem_DataLoader"><rect codeLine="6" fill="#F1F1F1" height="91.9531" id="DataLoader" rx="2.5" ry="2.5" style="stroke:#181818;stroke-width:0.5;" width="297.1201" x="406.24" y="351.02"/><text fill="#000000" font-family="sans-serif" font-size="14" lengthAdjust="spacing" textLength="77.3213" x="516.1394" y="369.5552">DataLoader</text><line style="stroke:#181818;stroke-width:0.5;" x1="407.24" x2="702.3601" y1="377.5083" y2="377.5083"/><text fill="#000000" font-family="sans-serif" font-size="14" lengthAdjust="spacing" textLength="99.5654" x="412.24" y="395.0434">-separator: str</text><line style="stroke:#181818;stroke-width:0.5;" x1="407.24" x2="702.3601" y1="401.9966" y2="401.9966"/><text fill="#000000" font-family="sans-serif" font-size="14" lengthAdjust="spacing" textLength="161.7178" x="412.24" y="419.5317">+__init__(separator: str)</text><text fill="#000000" font-family="sans-serif" font-size="14" lengthAdjust="spacing" textLength="285.1201" x="412.24" y="436.02">+load_data(folder_path: str) : list[DataSet]</text></g><!--class DataSet--><g id="elem_DataSet"><rect codeLine="12" fill="#F1F1F1" height="174.3945" id="DataSet" rx="2.5" ry="2.5" style="stroke:#181818;stroke-width:0.5;" width="411.1504" x="767.44" y="444.8"/><text fill="#000000" font-family="sans-serif" font-size="14" lengthAdjust="spacing" textLength="51.7617" x="947.1343" y="463.3352">DataSet</text><line style="stroke:#181818;stroke-width:0.5;" x1="768.44" x2="1177.5904" y1="471.2883" y2="471.2883"/><text fill="#000000" font-family="sans-serif" font-size="14" lengthAdjust="spacing" textLength="95.4434" x="773.44" y="488.8234">-data: float[][]</text><text fill="#000000" font-family="sans-serif" font-size="14" lengthAdjust="spacing" textLength="99.292" x="773.44" y="505.3117">+provider : str</text><line style="stroke:#181818;stroke-width:0.5;" x1="768.44" x2="1177.5904" y1="512.2648" y2="512.2648"/><text fill="#000000" font-family="sans-serif" font-size="14" lengthAdjust="spacing" textLength="150.958" x="773.44" y="529.8">-__init__(provider: str)</text><text fill="#000000" font-family="sans-serif" font-size="14" lengthAdjust="spacing" textLength="68.0176" x="773.44" y="546.2883">-__iter__()</text><text fill="#000000" font-family="sans-serif" font-size="14" lengthAdjust="spacing" textLength="97.002" x="773.44" y="562.7766">-__len__() : int</text><text fill="#000000" font-family="sans-serif" font-size="14" lengthAdjust="spacing" textLength="94.6982" x="773.44" y="579.2648">-__str__() : str</text><text fill="#000000" font-family="sans-serif" font-size="14" lengthAdjust="spacing" textLength="147.6904" x="773.44" y="595.7531">+add_entry(list[float])</text><text fill="#000000" font-family="sans-serif" font-size="14" lengthAdjust="spacing" textLength="399.1504" x="773.44" y="612.2414">+get_features_and_labels() : tuple[list[list[float]], list[float]]</text></g><!--class Util--><g id="elem_Util"><rect codeLine="23" fill="#F1F1F1" height="58.9766" id="Util" rx="2.5" ry="2.5" style="stroke:#181818;stroke-width:0.5;" width="361.3916" x="792.32" y="350.51"/><text fill="#000000" font-family="sans-serif" font-size="14" lengthAdjust="spacing" textLength="23.0303" x="961.5007" y="369.0452">Util</text><line style="stroke:#181818;stroke-width:0.5;" x1="793.32" x2="1152.7116" y1="376.9983" y2="376.9983"/><line style="stroke:#181818;stroke-width:0.5;" x1="793.32" x2="1152.7116" y1="384.9983" y2="384.9983"/><text fill="#000000" font-family="sans-serif" font-size="14" lengthAdjust="spacing" text-decoration="underline" textLength="349.3916" x="798.32" y="402.5334">+parse_line(line: str, separator: str = " ") : list[float]</text></g><!--class Regressor--><g id="elem_Regressor"><rect codeLine="32" fill="#F1F1F1" height="89.5977" id="Regressor" rx="2.5" ry="2.5" style="stroke:#181818;stroke-width:0.5;" width="305.2822" x="402.16" y="136.2"/><text fill="#000000" font-family="sans-serif" font-size="12" font-style="italic" lengthAdjust="spacing" textLength="63.4453" x="523.0785" y="152.8016">&#171;interface&#187;</text><text fill="#000000" font-family="sans-serif" font-size="14" font-style="italic" lengthAdjust="spacing" textLength="67.5117" x="521.0453" y="168.868">Regressor</text><line style="stroke:#181818;stroke-width:0.5;" x1="403.16" x2="706.4422" y1="176.8211" y2="176.8211"/><line style="stroke:#181818;stroke-width:0.5;" x1="403.16" x2="706.4422" y1="184.8211" y2="184.8211"/><text fill="#000000" font-family="sans-serif" font-size="14" lengthAdjust="spacing" textLength="293.2822" x="408.16" y="202.3563">+train(X: list[list[float]], y: list[float]) : None</text><text fill="#000000" font-family="sans-serif" font-size="14" lengthAdjust="spacing" textLength="189.6699" x="408.16" y="218.8445">+predict(x: list[float]) : float</text></g><!--class LinearRegressor--><g id="elem_LinearRegressor"><rect codeLine="37" fill="#F1F1F1" height="108.4414" id="LinearRegressor" rx="2.5" ry="2.5" style="stroke:#181818;stroke-width:0.5;" width="305.2822" x="820.37" y="167.78"/><text fill="#000000" font-family="sans-serif" font-size="14" lengthAdjust="spacing" textLength="108.9717" x="918.5253" y="186.3152">LinearRegressor</text><line style="stroke:#181818;stroke-width:0.5;" x1="821.37" x2="1124.6522" y1="194.2683" y2="194.2683"/><text fill="#000000" font-family="sans-serif" font-size="14" lengthAdjust="spacing" textLength="90.5215" x="826.37" y="211.8034">-coefficients:</text><line style="stroke:#181818;stroke-width:0.5;" x1="821.37" x2="1124.6522" y1="218.7566" y2="218.7566"/><text fill="#000000" font-family="sans-serif" font-size="14" lengthAdjust="spacing" textLength="67.2246" x="826.37" y="236.2917">-__init__()</text><text fill="#000000" font-family="sans-serif" font-size="14" lengthAdjust="spacing" textLength="293.2822" x="826.37" y="252.78">+train(X: list[list[float]], y: list[float]) : None</text><text fill="#000000" font-family="sans-serif" font-size="14" lengthAdjust="spacing" textLength="189.6699" x="826.37" y="269.2683">+predict(x: list[float]) : float</text></g><!--class AverageRegressor--><g id="elem_AverageRegressor"><rect codeLine="44" fill="#F1F1F1" height="91.9531" id="AverageRegressor" rx="2.5" ry="2.5" style="stroke:#181818;stroke-width:0.5;" width="305.2822" x="820.37" y="41.02"/><text fill="#000000" font-family="sans-serif" font-size="14" lengthAdjust="spacing" textLength="122.2061" x="911.9081" y="59.5552">AverageRegressor</text><line style="stroke:#181818;stroke-width:0.5;" x1="821.37" x2="1124.6522" y1="67.5083" y2="67.5083"/><line style="stroke:#181818;stroke-width:0.5;" x1="821.37" x2="1124.6522" y1="75.5083" y2="75.5083"/><text fill="#000000" font-family="sans-serif" font-size="14" lengthAdjust="spacing" textLength="67.2246" x="826.37" y="93.0434">-__init__()</text><text fill="#000000" font-family="sans-serif" font-size="14" lengthAdjust="spacing" textLength="293.2822" x="826.37" y="109.5317">+train(X: list[list[float]], y: list[float]) : None</text><text fill="#000000" font-family="sans-serif" font-size="14" lengthAdjust="spacing" textLength="189.6699" x="826.37" y="126.02">+predict(x: list[float]) : float</text></g><!--class Predictor--><g id="elem_Predictor"><rect codeLine="50" fill="#F1F1F1" height="190.8828" id="Predictor" rx="2.5" ry="2.5" style="stroke:#181818;stroke-width:0.5;" width="320.1572" x="22" y="85.56"/><text fill="#000000" font-family="sans-serif" font-size="14" lengthAdjust="spacing" textLength="60.8604" x="151.6484" y="104.0952">Predictor</text><line style="stroke:#181818;stroke-width:0.5;" x1="23" x2="341.1572" y1="112.0483" y2="112.0483"/><text fill="#000000" font-family="sans-serif" font-size="14" lengthAdjust="spacing" text-decoration="underline" textLength="198.2012" x="28" y="129.5834">+AVERAGE : str = "AVERAGE"</text><text fill="#000000" font-family="sans-serif" font-size="14" lengthAdjust="spacing" text-decoration="underline" textLength="168.8477" x="28" y="146.0717">+LINEAR : str = "LINEAR"</text><text fill="#000000" font-family="sans-serif" font-size="14" lengthAdjust="spacing" textLength="140.041" x="28" y="162.56">-regressor_type : str</text><text fill="#000000" font-family="sans-serif" font-size="14" lengthAdjust="spacing" textLength="159.5439" x="28" y="179.0483">-datasets : list[DataSet]</text><text fill="#000000" font-family="sans-serif" font-size="14" lengthAdjust="spacing" textLength="189.998" x="28" y="195.5366">-regressors : list[Regressor]</text><text fill="#000000" font-family="sans-serif" font-size="14" lengthAdjust="spacing" textLength="136.001" x="28" y="212.0248">+providers : list[str]</text><line style="stroke:#181818;stroke-width:0.5;" x1="23" x2="341.1572" y1="218.978" y2="218.978"/><text fill="#000000" font-family="sans-serif" font-size="14" lengthAdjust="spacing" textLength="308.1572" x="28" y="236.5131">-__init__(folder_path: str, regressor_type: str)</text><text fill="#000000" font-family="sans-serif" font-size="14" lengthAdjust="spacing" textLength="51.666" x="28" y="253.0014">+train()</text><text fill="#000000" font-family="sans-serif" font-size="14" lengthAdjust="spacing" textLength="282.2627" x="28" y="269.4897">+predict(provider: str, x: list[float]) : float</text></g><!--link DataLoader to DataSet--><g id="link_DataLoader_DataSet"><path codeLine="27" d="M699.04,443.46 C721.02,450.59 738.3725,456.2196 761.3825,463.6796 " fill="transparent" id="DataLoader-to-DataSet" style="stroke:#181818;stroke-width:1;"/><polygon fill="#181818" points="767.09,465.53,759.7623,458.9493,762.3337,463.988,757.2951,466.5594,767.09,465.53" style="stroke:#181818;stroke-width:1;"/><text fill="#000000" font-family="sans-serif" font-size="13" lengthAdjust="spacing" textLength="6.2651" x="740.8184" y="475.801">*</text></g><!--link DataLoader to Util--><g id="link_DataLoader_Util"><path codeLine="28" d="M703.71,390.96 C732.34,389.79 756.625,388.7938 786.135,387.5938 " fill="transparent" id="DataLoader-to-Util" style="stroke:#181818;stroke-width:1;stroke-dasharray:7.0,7.0;"/><polygon fill="#181818" points="792.13,387.35,782.9749,383.719,787.1341,387.5532,783.3,391.7124,792.13,387.35" style="stroke:#181818;stroke-width:1;"/></g><!--reverse link Regressor to LinearRegressor--><g id="link_Regressor_LinearRegressor"><path codeLine="62" d="M725.7434,197.7434 C762.3134,201.3434 783.48,203.43 820.05,207.03 " fill="transparent" id="Regressor-backto-LinearRegressor" style="stroke:#181818;stroke-width:1;stroke-dasharray:7.0,7.0;"/><polygon fill="transparent" points="707.83,195.98,725.1556,203.7146,726.3312,191.7723,707.83,195.98" style="stroke:#181818;stroke-width:1;"/></g><!--reverse link Regressor to AverageRegressor--><g id="link_Regressor_AverageRegressor"><path codeLine="63" d="M725.3877,142.6943 C761.9577,134.4343 783.48,129.58 820.05,121.32 " fill="transparent" id="Regressor-backto-AverageRegressor" style="stroke:#181818;stroke-width:1;stroke-dasharray:7.0,7.0;"/><polygon fill="transparent" points="707.83,146.66,726.7096,148.5468,724.0658,136.8417,707.83,146.66" style="stroke:#181818;stroke-width:1;"/></g><!--link Predictor to Regressor--><g id="link_Predictor_Regressor"><path codeLine="64" d="M342.45,181 C362.17,181 376.29,181 395.9,181 " fill="transparent" id="Predictor-to-Regressor" style="stroke:#181818;stroke-width:1;"/><polygon fill="#181818" points="401.9,181,392.9,177,396.9,181,392.9,185,401.9,181" style="stroke:#181818;stroke-width:1;"/><text fill="#000000" font-family="sans-serif" font-size="13" lengthAdjust="spacing" textLength="6.2651" x="379.6939" y="193.9631">*</text></g><!--link Predictor to DataLoader--><g id="link_Predictor_DataLoader"><path codeLine="67" d="M342.45,273.86 C387.98,300.38 430.4556,325.1398 468.9756,347.5798 " fill="transparent" id="Predictor-to-DataLoader" style="stroke:#181818;stroke-width:1;stroke-dasharray:7.0,7.0;"/><polygon fill="#181818" points="474.16,350.6,468.3968,342.6134,469.8396,348.0832,464.3699,349.526,474.16,350.6" style="stroke:#181818;stroke-width:1;"/></g><!--link Predictor to DataSet--><g id="link_Predictor_DataSet"><path codeLine="68" d="M225.65,276.76 C258.9,339.69 311.38,417.89 382.24,460 C497.3,528.37 641.2301,545.8955 761.1201,546.5855 " fill="transparent" id="Predictor-to-DataSet" style="stroke:#181818;stroke-width:1;stroke-dasharray:7.0,7.0;"/><polygon fill="#181818" points="767.12,546.62,758.1432,542.5683,762.1201,546.5912,758.0971,550.5681,767.12,546.62" style="stroke:#181818;stroke-width:1;"/></g><!--SRC=[pLJ1Yjim4BtxAmQVdDqaz1osWK13MGXBoT9I24PevN4YLfMDD5cQRlFlbUp4bXmVUciD2V7CqypJcyaxo091I2CK9lPLwfeR_WE4ujQkY8nyEH8-Yae_ory87nA59G5LOEJ-G518Wu9afPEavkALxn7IWXDFuJq1zpHbu9EBR2fUeBc4_JC3YxuNLMO1baoNk0V6f9R4M1OZ9W54kNBCTyhAIhd2hEPqQ56m02KjxNpNPwIyENLE1dnS9YBZQosWT7Lfb-_oe5LjgZVfkSSqPptDAsB0ia6GuyQoEAXG-vWhA3L56NV-aeaLuKN1K9CvPStL6ffvgCSUYPN8wMZGCguBflWBAjkKecEjSDSS34xdKmZVRbNwIb854jt3koLEKfp13SKYKr9ZvhyQijF1EE4Zf91smsYxX4s2fPZDbWuCSES-wNKwGz1ylcme9UTWrmpktOMjMy3hnZb5qPHS86pRN6NWuQ6BBfVHbSXmgRFl5vAnEgU8kh_9KwKnMWmifA3ivmsm-NMhwCQ9nKtFAzm_KM5PIY7TbEq2nhPiyizuhzxGEBd7YVy7_Bwq1o9YmRgklgstgyzhwFRo4aZ7m9l7f_LgssFRzpIuiBdAmEXKuuqhU2EnI7RKXWOLEb0dxPZnT2ZNA1zJVcY1qm776_TinpCPqJooiYdynGY2lzdl-NouusEGuJerc7w65pUuyrxGOrot7kAzeBU6aOGJ_0y0]--></g></svg>